<?xml version="1.0" encoding="UTF-8" standalone="no"?>
<!DOCTYPE svg PUBLIC "-//W3C//DTD SVG 1.1//EN" "http://www.w3.org/Graphics/SVG/1.1/DTD/svg11.dtd">
<svg width="100%" height="100%" viewBox="0 0 355 355" version="1.1" xmlns="http://www.w3.org/2000/svg" xmlns:xlink="http://www.w3.org/1999/xlink" xml:space="preserve" xmlns:serif="http://www.serif.com/" style="fill-rule:evenodd;clip-rule:evenodd;stroke-linecap:round;stroke-linejoin:round;stroke-miterlimit:1.5;">
    <g transform="matrix(1.46689,0,0,1.46689,-66.7835,-99.1537)">
        <circle cx="166.303" cy="188.371" r="120.776" style="fill:white;stroke:rgb(33,150,243);stroke-width:2.84px;"/>
    </g>
    <g transform="matrix(1.3691,0,0,1.3691,-50.5202,-80.7324)">
        <circle cx="166.303" cy="188.371" r="120.776" style="fill:rgb(33,150,243);stroke:white;stroke-width:3.04px;"/>
    </g>
    <g transform="matrix(1,0,0,1,-45.5685,156.298)">
        <path d="M207.109,71.648C206.979,70.737 206.914,69.793 206.914,68.816L206.914,65.984C206.914,51.792 209.713,40.008 215.312,30.633C220.911,21.258 229.309,12.143 240.507,3.289C251.315,-5.175 259.42,-12.889 264.824,-19.856C270.227,-26.822 272.929,-35.513 272.929,-45.93C272.929,-57.388 268.958,-66.926 261.015,-74.543C253.072,-82.16 240.898,-85.969 224.492,-85.969C208.085,-85.969 195.195,-81.705 185.82,-73.176C176.445,-64.647 171.757,-52.636 171.757,-37.141L138.554,-37.141C138.554,-53.156 142.233,-66.828 149.589,-78.156C156.946,-89.485 167.07,-98.111 179.96,-104.035C192.851,-109.96 207.695,-112.922 224.492,-112.922C241.289,-112.922 255.839,-110.22 268.144,-104.817C280.449,-99.413 289.986,-91.731 296.757,-81.77C303.528,-71.809 306.914,-59.862 306.914,-45.93C306.914,-35.253 305.188,-26.106 301.738,-18.488C298.287,-10.871 293.437,-3.905 287.187,2.41C280.937,8.725 273.515,15.138 264.921,21.648C257.499,27.377 251.868,32.716 248.027,37.664C244.186,42.612 241.516,47.788 240.019,53.191C238.522,58.595 237.513,64.747 236.992,71.648L207.109,71.648ZM222.539,154.656C215.507,154.656 209.648,152.28 204.96,147.527C200.273,142.775 197.929,136.948 197.929,130.047C197.929,123.015 200.273,117.221 204.96,112.664C209.648,108.107 215.507,105.828 222.539,105.828C229.7,105.828 235.657,108.107 240.41,112.664C245.162,117.221 247.539,123.015 247.539,130.047C247.539,136.948 245.162,142.775 240.41,147.527C235.657,152.28 229.7,154.656 222.539,154.656Z" style="fill:white;fill-rule:nonzero;"/>
    </g>
</svg>
